<svg width="24" height="24" viewBox="0 0 24 24" fill="none" xmlns="http://www.w3.org/2000/svg">
<path d="M18.4309 13.0428C18.4421 12.1748 18.6733 11.3238 19.1029 10.5688C19.5326 9.81393 20.1468 9.17966 20.8883 8.72505C20.4172 8.05415 19.7958 7.50202 19.0733 7.11253C18.3508 6.72303 17.5472 6.5069 16.7263 6.48129C14.9751 6.29799 13.2775 7.52621 12.3851 7.52621C11.4755 7.52621 10.1016 6.49949 8.62211 6.52984C7.66515 6.56067 6.73251 6.83817 5.91507 7.3353C5.09763 7.83243 4.42327 8.53224 3.95769 9.36654C1.94093 12.8485 3.44525 17.9659 5.37717 20.7805C6.34376 22.1588 7.47341 23.6983 8.95156 23.6437C10.398 23.5839 10.9382 22.7239 12.6842 22.7239C14.414 22.7239 14.9208 23.6437 16.429 23.609C17.9811 23.5839 18.959 22.2246 19.8917 20.8333C20.5861 19.8513 21.1205 18.7659 21.4751 17.6175C20.5733 17.2371 19.8038 16.6005 19.2625 15.787C18.7211 14.9735 18.4319 14.0191 18.4309 13.0428Z" fill="#000D1E"/>
<path d="M15.5837 4.62989C16.4299 3.61682 16.8469 2.31467 16.7459 1C15.453 1.13541 14.2587 1.75161 13.401 2.72582C12.9816 3.20174 12.6605 3.75542 12.4558 4.35521C12.2512 4.95499 12.1671 5.58911 12.2083 6.22132C12.855 6.22796 13.4948 6.08818 14.0794 5.81252C14.6641 5.53686 15.1784 5.1325 15.5837 4.62989Z" fill="#000D1E"/>
</svg>
