<svg width="24" height="24" viewBox="0 0 24 24" fill="none" xmlns="http://www.w3.org/2000/svg">
<path d="M2.08197 1.21624C1.80027 1.5493 1.65654 1.97743 1.68019 2.41299V21.3216C1.6511 21.7579 1.7955 22.188 2.08197 22.5183L2.14181 22.5867L12.7333 11.9955V11.7391L2.14181 1.1564L2.08197 1.21624Z" fill="url(#paint0_linear_32343_132370)"/>
<path d="M16.2321 15.5261L12.7273 11.9957V11.7393L16.2321 8.20889L16.3091 8.26018L20.5064 10.6366C21.7031 11.3119 21.7031 12.4232 20.5064 13.107L16.3262 15.4834L16.2321 15.5261Z" fill="url(#paint1_linear_32343_132370)"/>
<path d="M16.3337 15.4744L12.7263 11.8671L2.07495 22.5181C2.31651 22.7331 2.6257 22.8568 2.9489 22.8678C3.27211 22.8787 3.58894 22.7762 3.84447 22.578L16.3337 15.4744Z" fill="url(#paint2_linear_32343_132370)"/>
<path d="M16.3337 8.26073L3.84447 1.16573C3.59061 0.964778 3.27402 0.859758 2.95037 0.869139C2.62673 0.87852 2.31675 1.0017 2.07495 1.21702L12.7263 11.8681L16.3337 8.26073Z" fill="url(#paint3_linear_32343_132370)"/>
<path opacity="0.2" d="M16.2311 15.3979L3.84447 22.4501C3.59823 22.636 3.29813 22.7365 2.98963 22.7365C2.68113 22.7365 2.38103 22.636 2.13479 22.4501L2.07495 22.51L2.13479 22.5783C2.38103 22.7642 2.68113 22.8647 2.98963 22.8647C3.29813 22.8647 3.59823 22.7642 3.84447 22.5783L16.3337 15.4748L16.2311 15.3979Z" fill="#000D1E"/>
<path opacity="0.12" d="M2.07708 22.3988C1.8025 22.0598 1.66794 21.6286 1.70095 21.1935V21.3217C1.67186 21.758 1.79062 22.1891 2.07708 22.5194L2.16256 22.4586L2.07708 22.3988Z" fill="#000D1E"/>
<path opacity="0.12" d="M20.5015 12.9784L16.2273 15.3975L16.3042 15.4744L20.5015 13.098C20.7493 12.9933 20.9642 12.8237 21.1237 12.607C21.2831 12.3904 21.3812 12.1348 21.4076 11.8671C21.3542 12.1103 21.2443 12.3376 21.087 12.5307C20.9296 12.7237 20.729 12.877 20.5015 12.9784Z" fill="#000D1E"/>
<path opacity="0.25" d="M3.84781 1.28526L20.5087 10.7567C20.7362 10.858 20.9368 11.0113 21.0941 11.2043C21.2515 11.3974 21.3614 11.6247 21.4148 11.8679C21.3884 11.6002 21.2903 11.3446 21.1308 11.128C20.9714 10.9114 20.7565 10.7417 20.5087 10.637L3.84781 1.16558C2.65958 0.481729 1.67651 1.04591 1.67651 2.41362V2.54184C1.70216 1.17413 2.65958 0.609953 3.84781 1.28526Z" fill="white"/>
<defs>
<linearGradient id="paint0_linear_32343_132370" x1="11.793" y1="2.21638" x2="-2.55089" y2="16.5606" gradientUnits="userSpaceOnUse">
<stop stop-color="#00A0FF"/>
<stop offset="0.01" stop-color="#00A1FF"/>
<stop offset="0.26" stop-color="#00BEFF"/>
<stop offset="0.51" stop-color="#00D2FF"/>
<stop offset="0.76" stop-color="#00DFFF"/>
<stop offset="1" stop-color="#00E3FF"/>
</linearGradient>
<linearGradient id="paint1_linear_32343_132370" x1="22.0707" y1="11.8675" x2="1.39209" y2="11.8675" gradientUnits="userSpaceOnUse">
<stop stop-color="#FFE000"/>
<stop offset="0.41" stop-color="#FFBD00"/>
<stop offset="0.78" stop-color="#FFA500"/>
<stop offset="1" stop-color="#FF9C00"/>
</linearGradient>
<linearGradient id="paint2_linear_32343_132370" x1="14.3761" y1="13.8332" x2="-5.07955" y2="33.2808" gradientUnits="userSpaceOnUse">
<stop stop-color="#FF3A44"/>
<stop offset="1" stop-color="#C31162"/>
</linearGradient>
<linearGradient id="paint3_linear_32343_132370" x1="-0.609254" y1="-5.07444" x2="8.07571" y2="3.61075" gradientUnits="userSpaceOnUse">
<stop stop-color="#32A071"/>
<stop offset="0.07" stop-color="#2DA771"/>
<stop offset="0.48" stop-color="#15CF74"/>
<stop offset="0.8" stop-color="#06E775"/>
<stop offset="1" stop-color="#00F076"/>
</linearGradient>
</defs>
</svg>
