<svg width="24" height="24" viewBox="0 0 24 24" fill="none" xmlns="http://www.w3.org/2000/svg">
<path fill-rule="evenodd" clip-rule="evenodd" d="M11.52 24C6.08943 24 3.37413 24 1.68707 22.3129C3.9014e-07 20.6259 2.81929e-07 17.9105 4.25049e-08 12.4799L1.80341e-10 11.5199C-2.39244e-07 6.08934 -3.9014e-07 3.37404 1.68706 1.68697C3.37413 3.9014e-07 6.08943 2.7713e-07 11.52 4.17803e-08L12.48 1.75768e-10C17.9106 -2.35177e-07 20.6259 -3.9014e-07 22.3129 1.68697C24 3.37402 24 6.08934 24 11.5199V12.4799C24 17.9105 24 20.6259 22.3129 22.3129C20.6259 24 17.9106 24 12.48 24H11.52Z" fill="#0077FF"/>
<path d="M16.5444 15.7533L18.1437 16.1544C18.8753 16.3378 19.5846 15.7852 19.5846 15.0316V7.21584C19.5846 6.55242 19.133 5.97401 18.4888 5.81246L13.8556 4.65067C13.124 4.46714 12.4147 5.01974 12.4147 5.77329V7.18156L9.49763 6.45009C8.76601 6.26656 8.05673 6.81927 8.05673 7.57271V8.98183L5.13622 8.24951C4.40459 8.06598 3.69531 8.61859 3.69531 9.37213V17.1879C3.69531 17.8513 4.14697 18.4298 4.79108 18.5913L9.42423 19.7532C10.1559 19.9366 10.8651 19.384 10.8651 18.6305V17.2214L11.4585 17.3702L10.8635 17.2188L10.8647 10.8264C10.8647 10.167 10.4498 9.78473 10.2991 9.66754C10.2806 9.65321 10.2707 9.63092 10.2715 9.60884C10.2719 9.59653 10.2756 9.58422 10.283 9.5735C10.3032 9.54388 10.3399 9.52987 10.3742 9.54027C10.9846 9.72529 11.5687 10.3536 11.627 11.1435L11.8286 17.1125C11.8351 17.3067 11.9592 17.4754 12.1382 17.5407L13.7856 17.9538C14.5173 18.1372 15.2266 17.5846 15.2266 16.8311V15.4228L15.2249 15.4223L15.2261 9.02758C15.2261 8.36818 14.8112 7.98595 14.6605 7.86876C14.6437 7.85581 14.634 7.83617 14.633 7.81611C14.6322 7.80178 14.6358 7.78724 14.6444 7.77471C14.6647 7.7451 14.7013 7.73108 14.7355 7.74149C15.346 7.9265 15.9301 8.55479 15.9884 9.34475L16.19 15.3132C16.197 15.5204 16.3384 15.6983 16.5374 15.7515L16.5444 15.7533Z" fill="white"/>
</svg>
